<!-- Generated by IcoMoon.io -->
<svg version="1.1" xmlns="http://www.w3.org/2000/svg" width="20" height="20" viewBox="0 0 20 20">
<title>LinkedIn</title>
<g id="icomoon-ignore">
</g>
<path fill="black" d="M951.177 0.010h-840.541c-19.307 0-37.822 7.67-51.474 21.321s-21.321 32.168-21.321 51.474v840.541c0 19.304 7.669 37.822 21.321 51.474s32.168 21.32 51.474 21.32h840.541c19.304 0 37.822-7.668 51.474-21.32s21.32-32.17 21.32-51.474v-840.541c0-19.306-7.668-37.822-21.32-51.474s-32.17-21.321-51.474-21.321zM331.762 840.069h-148.262v-470.945h148.262v470.945zM257.528 303.862c-16.818-0.095-33.231-5.169-47.167-14.583s-24.772-22.745-31.139-38.311c-6.367-15.566-7.981-32.67-4.637-49.152s11.496-31.604 23.426-43.459c11.93-11.854 27.105-19.908 43.608-23.146s33.596-1.515 49.121 4.952c15.525 6.467 28.787 17.388 38.11 31.384s14.293 30.442 14.28 47.26c0.159 11.259-1.951 22.436-6.204 32.863s-10.561 19.891-18.549 27.828c-7.988 7.937-17.492 14.184-27.947 18.37s-21.644 6.224-32.902 5.993zM878.244 840.483h-148.193v-257.286c0-75.878-32.256-99.299-73.892-99.299-43.966 0-87.11 33.145-87.11 101.216v255.369h-148.263v-471.016h142.578v65.262h1.921c14.311-28.967 64.438-78.479 140.931-78.479 82.727 0 172.098 49.101 172.098 192.913l-0.070 291.32z"></path>
</svg>
