<!-- Generated by IcoMoon.io -->
<svg version="1.1" xmlns="http://www.w3.org/2000/svg" width="1024" height="1024" viewBox="0 0 1024 1024">
<title>LinkedIn</title>
<g id="icomoon-ignore">
</g>
<path fill="#0a66c2" d="M0.010 72.823v840.541c0 19.307 7.67 37.822 21.321 51.474s32.168 21.321 51.474 21.321h840.541c19.304 0 37.822-7.669 51.474-21.321s21.32-32.168 21.32-51.474v-840.541c0-19.304-7.668-37.822-21.32-51.474s-32.17-21.32-51.474-21.32h-840.541c-19.306 0-37.822 7.668-51.474 21.32s-21.321 32.17-21.321 51.474zM840.069 692.238v148.262h-470.945v-148.262h470.945zM303.862 766.472c-0.095 16.818-5.169 33.231-14.583 47.167s-22.745 24.772-38.311 31.139c-15.566 6.367-32.67 7.981-49.152 4.637s-31.604-11.496-43.459-23.426c-11.854-11.93-19.908-27.105-23.146-43.608s-1.515-33.596 4.952-49.121c6.467-15.525 17.388-28.787 31.384-38.11s30.442-14.293 47.26-14.28c11.259-0.159 22.436 1.951 32.863 6.204s19.891 10.561 27.828 18.549c7.937 7.988 14.184 17.492 18.37 27.947s6.224 21.644 5.993 32.902zM840.483 145.756v148.193h-257.286c-75.878 0-99.299 32.256-99.299 73.892 0 43.966 33.145 87.11 101.216 87.11h255.369v148.263h-471.016v-142.578h65.262v-1.921c-28.967-14.311-78.479-64.438-78.479-140.931 0-82.727 49.101-172.098 192.913-172.098l291.32 0.070z"></path>
</svg>
